<?xml version="1.0" encoding="UTF-8" standalone="no"?>
<!-- Generator: Adobe Illustrator 24.3.0, SVG Export Plug-In . SVG Version: 6.00 Build 0)  -->

<svg
   xmlns:dc="http://purl.org/dc/elements/1.1/"
   xmlns:cc="http://creativecommons.org/ns#"
   xmlns:rdf="http://www.w3.org/1999/02/22-rdf-syntax-ns#"
   xmlns:svg="http://www.w3.org/2000/svg"
   xmlns="http://www.w3.org/2000/svg"
   xmlns:xlink="http://www.w3.org/1999/xlink"
   xmlns:sodipodi="http://sodipodi.sourceforge.net/DTD/sodipodi-0.dtd"
   xmlns:inkscape="http://www.inkscape.org/namespaces/inkscape"
   version="1.1"
   id="Слой_1"
   x="0px"
   y="0px"
   viewBox="0 0 48 48"
   style="enable-background:new 0 0 48 48;"
   xml:space="preserve"
   sodipodi:docname="grren-tr.svg"
   inkscape:version="0.92.4 (5da689c313, 2019-01-14)"><metadata
   id="metadata3753"><rdf:RDF><cc:Work
       rdf:about=""><dc:format>image/svg+xml</dc:format><dc:type
         rdf:resource="http://purl.org/dc/dcmitype/StillImage" /><dc:title></dc:title></cc:Work></rdf:RDF></metadata><defs
   id="defs3751"><linearGradient
     inkscape:collect="always"
     id="linearGradient4596"><stop
       style="stop-color:#aa4400;stop-opacity:1;"
       offset="0"
       id="stop4592" /><stop
       style="stop-color:#aa4400;stop-opacity:0;"
       offset="1"
       id="stop4594" /></linearGradient><linearGradient
     inkscape:collect="always"
     xlink:href="#linearGradient4596"
     id="linearGradient4600"
     x1="0.70999998"
     y1="23.959999"
     x2="47.700001"
     y2="23.959999"
     gradientUnits="userSpaceOnUse" /></defs><sodipodi:namedview
   pagecolor="#ffffff"
   bordercolor="#666666"
   borderopacity="1"
   objecttolerance="10"
   gridtolerance="10"
   guidetolerance="10"
   inkscape:pageopacity="0"
   inkscape:pageshadow="2"
   inkscape:window-width="1920"
   inkscape:window-height="1011"
   id="namedview3749"
   showgrid="false"
   inkscape:zoom="17.041667"
   inkscape:cx="14.317848"
   inkscape:cy="24"
   inkscape:window-x="-9"
   inkscape:window-y="-9"
   inkscape:window-maximized="1"
   inkscape:current-layer="g3740" />
<style
   type="text/css"
   id="style3734">
	.st0{fill:#FFF6DA;}
	.st1{fill:#FFFFFF;}
</style>
<g
   id="g3740">
	<g
   id="g3738"
   style="fill:#dff2e3;fill-opacity:1"
   transform="translate(-0.17603912,0.17603912)">
		<path
   class="st0"
   d="m 35.39,46.68 c -7.45,1.04 -14.91,1.04 -22.36,0 C 7.84,45.85 2.32,40.32 1.49,35.14 0.45,27.69 0.45,20.23 1.49,12.78 2.32,7.6 7.84,2.07 13.02,1.24 c 7.45,-1.04 14.91,-1.04 22.36,0 5.18,0.83 10.71,6.36 11.54,11.54 1.04,7.45 1.04,14.91 0,22.36 -0.83,5.18 -6.36,10.71 -11.53,11.54 z"
   id="path3736"
   style="fill:#dff2e3;fill-opacity:1"
   inkscape:connector-curvature="0" />
	</g>
</g>
<g
   id="g3746">
	<g
   id="g3744">
		<path
   class="st1"
   d="M24.2,9.21c-8.13,0-14.75,6.62-14.75,14.75s6.62,14.75,14.75,14.75s14.75-6.62,14.75-14.75    S32.34,9.21,24.2,9.21z M24.2,36.25c-3.35,0-6.38-1.35-8.6-3.53v-2c0-0.58,0.26-0.96,0.56-1.4c0.31-0.45,0.66-0.96,0.66-1.68    c0-1.17-1.06-1.29-1.63-1.35c-0.41-0.05-0.79-0.09-1.01-0.31c-0.17-0.17-0.33-0.47-0.51-0.79c-0.35-0.64-0.83-1.48-1.73-2    c0.4-6.42,5.73-11.53,12.25-11.53c0.34,0,0.67,0.02,1,0.05c-0.07,0.04-0.15,0.07-0.2,0.13c-0.12,0.12-0.18,0.28-0.18,0.45    c0.01,0.17,0.08,0.33,0.21,0.44c0.22,0.2,0.26,0.3,0.27,0.3c-0.01,0.03-0.13,0.22-0.76,0.54c-1.04,0.53-2.24,1.6-2.42,2.72    c-0.08,0.51,0.07,0.98,0.42,1.33c0.12,0.12,0.27,0.18,0.43,0.18c0.85,0,1.51-0.32,2.15-0.62c0.65-0.31,1.27-0.61,2.15-0.61    c2.41,0,4.3,0.54,4.3,1.23c0,0.25-0.08,0.33-0.11,0.36c-0.3,0.3-1.33,0.28-2.23,0.26c-0.24,0-0.48-0.01-0.73-0.01    c-0.83,0-1.09-0.12-1.39-0.26c-0.35-0.16-0.74-0.35-1.68-0.35c-1.01,0-2.9,0.18-4.12,1.41c-1,1-0.9,2.2-0.83,2.99    c0.02,0.18,0.03,0.36,0.03,0.51c0,1.21,1.24,1.84,2.46,1.84c1.88,0,3.5,0.35,3.69,0.61c0,0.69,0.2,1.16,0.37,1.53    c0.14,0.32,0.25,0.56,0.25,0.92c0,0.28-0.05,0.34-0.17,0.5c-0.23,0.3-0.45,0.64-0.45,1.35c0,1.29,1.25,2.71,1.39,2.87    c0.12,0.13,0.29,0.2,0.46,0.2c0.05,0,0.1-0.01,0.15-0.02c0.36-0.09,3.53-0.97,3.53-3.05c0-0.65,0.2-0.83,0.51-1.1    c0.3-0.26,0.72-0.62,0.72-1.36c0-0.49,0.87-1.76,1.68-2.66c0.11-0.13,0.17-0.3,0.16-0.47c-0.01-0.17-0.1-0.33-0.24-0.43    c-0.48-0.37-1.8-1.58-2.24-2.75c0.25,0.13,0.56,0.34,0.81,0.59c0.2,0.21,0.48,0.3,0.79,0.29c0.5-0.03,1.09-0.42,1.65-0.91    c0.29,1.04,0.45,2.13,0.45,3.26C36.49,30.74,30.98,36.25,24.2,36.25z"
   id="path3742" />
	</g>
</g>
</svg>