<?xml version="1.0" encoding="utf-8"?>
<!-- Generator: Adobe Illustrator 24.3.0, SVG Export Plug-In . SVG Version: 6.00 Build 0)  -->
<svg version="1.1" id="Слой_1" xmlns="http://www.w3.org/2000/svg" xmlns:xlink="http://www.w3.org/1999/xlink" x="0px" y="0px"
	 viewBox="0 0 45 45" style="enable-background:new 0 0 45 45;" xml:space="preserve">
<style type="text/css">
	.st0{fill:#020203;}
</style>
<g id="Page-1">
	<g id="_x30_17---Headset">
		<path id="Shape" class="st0" d="M41.8,18.3h-0.7c0-1-0.6-1.8-1.6-2.1c-0.9-8.7-8.2-15.4-17-15.4S6.4,7.4,5.5,16.1
			c-0.9,0.3-1.6,1.1-1.6,2.1H3.2c-1.6,0-3,1.3-3,3v5.9c0,1.6,1.3,3,3,3h0.7c0,1.2,1,2.2,2.2,2.2h0.7v3c0,3.7,3,6.7,6.7,6.7h2.3
			c0.3,1.3,1.5,2.2,2.9,2.2h7.4c1.6,0,3-1.3,3-3s-1.3-3-3-3h-7.4c-1.3,0-2.5,0.9-2.9,2.2h-2.3c-2.9,0-5.2-2.3-5.2-5.2v-3h0.7
			c1.2,0,2.2-1,2.2-2.2V18.3c0-0.9-0.6-1.7-1.4-2.1c0.8-6.3,6.1-11.1,12.5-11.1S34.3,9.9,35,16.2c-0.8,0.3-1.4,1.2-1.4,2.1v11.9
			c0,1.2,1,2.2,2.2,2.2h3c1.2,0,2.2-1,2.2-2.2h0.7c1.6,0,3-1.3,3-3v-5.9C44.8,19.6,43.5,18.3,41.8,18.3L41.8,18.3z M18.8,39.8h7.4
			c0.8,0,1.5,0.7,1.5,1.5s-0.7,1.5-1.5,1.5h-7.4c-0.8,0-1.5-0.7-1.5-1.5S18,39.8,18.8,39.8z M3.2,28.7c-0.8,0-1.5-0.7-1.5-1.5v-5.9
			c0-0.8,0.7-1.5,1.5-1.5h0.7v8.9L3.2,28.7L3.2,28.7z M9.9,30.2c0,0.4-0.3,0.7-0.7,0.7h-3c-0.4,0-0.7-0.3-0.7-0.7V18.3
			c0-0.4,0.3-0.7,0.7-0.7h3c0.4,0,0.7,0.3,0.7,0.7V30.2z M22.5,3.4c-7.2,0-13.3,5.5-14,12.6H7C7.9,8.1,14.6,2.2,22.5,2.2
			S37.1,8.1,38,16h-1.5C35.8,8.9,29.7,3.4,22.5,3.4L22.5,3.4z M39.6,30.2c0,0.4-0.3,0.7-0.7,0.7h-3c-0.4,0-0.7-0.3-0.7-0.7V18.3
			c0-0.4,0.3-0.7,0.7-0.7h3c0.4,0,0.7,0.3,0.7,0.7V30.2z M43.3,27.2c0,0.8-0.7,1.5-1.5,1.5h-0.7v-8.9h0.7c0.8,0,1.5,0.7,1.5,1.5
			V27.2z"/>
	</g>
</g>
</svg>
