<?xml version="1.0" encoding="utf-8"?>
<!-- Generator: Adobe Illustrator 24.3.0, SVG Export Plug-In . SVG Version: 6.00 Build 0)  -->
<svg version="1.1" id="Слой_1" xmlns="http://www.w3.org/2000/svg" xmlns:xlink="http://www.w3.org/1999/xlink" x="0px" y="0px"
	 viewBox="0 0 48 48" style="enable-background:new 0 0 48 48;" xml:space="preserve">
<style type="text/css">
	.st0{fill:#FF1D25;}
	.st1{fill:#FFFFFF;}
</style>
<g>
	<g>
		<path class="st0" d="M35.18,46.68c-7.45,1.04-14.91,1.04-22.36,0C7.64,45.85,2.11,40.32,1.28,35.14c-1.04-7.45-1.04-14.91,0-22.36
			C2.11,7.6,7.64,2.07,12.82,1.24c7.45-1.04,14.91-1.04,22.36,0c5.18,0.83,10.71,6.36,11.54,11.54c1.04,7.45,1.04,14.91,0,22.36
			C45.89,40.32,40.36,45.85,35.18,46.68z"/>
	</g>
</g>
<g>
	<g>
		<path class="st1" d="M24,9.21c-8.13,0-14.75,6.62-14.75,14.75S15.87,38.71,24,38.71s14.75-6.62,14.75-14.75S32.13,9.21,24,9.21z
			 M24,36.25c-3.35,0-6.38-1.35-8.6-3.53v-2c0-0.58,0.26-0.96,0.56-1.4c0.31-0.45,0.66-0.96,0.66-1.68c0-1.17-1.06-1.29-1.63-1.35
			c-0.41-0.05-0.79-0.09-1.01-0.31c-0.17-0.17-0.33-0.47-0.51-0.79c-0.35-0.64-0.83-1.48-1.73-2c0.4-6.42,5.73-11.53,12.25-11.53
			c0.34,0,0.67,0.02,1,0.05c-0.07,0.04-0.15,0.07-0.2,0.13c-0.12,0.12-0.18,0.28-0.18,0.45c0.01,0.17,0.08,0.33,0.21,0.44
			c0.22,0.2,0.26,0.3,0.27,0.3c-0.01,0.03-0.13,0.22-0.76,0.54c-1.04,0.53-2.24,1.6-2.42,2.72c-0.08,0.51,0.07,0.98,0.42,1.33
			c0.12,0.12,0.27,0.18,0.43,0.18c0.85,0,1.51-0.32,2.15-0.62c0.65-0.31,1.27-0.61,2.15-0.61c2.41,0,4.3,0.54,4.3,1.23
			c0,0.25-0.08,0.33-0.11,0.36c-0.3,0.3-1.33,0.28-2.23,0.26c-0.24,0-0.48-0.01-0.73-0.01c-0.83,0-1.09-0.12-1.39-0.26
			c-0.35-0.16-0.74-0.35-1.68-0.35c-1.01,0-2.9,0.18-4.12,1.41c-1,1-0.9,2.2-0.83,2.99c0.02,0.18,0.03,0.36,0.03,0.51
			c0,1.21,1.24,1.84,2.46,1.84c1.88,0,3.5,0.35,3.69,0.61c0,0.69,0.2,1.16,0.37,1.53c0.14,0.32,0.25,0.56,0.25,0.92
			c0,0.28-0.05,0.34-0.17,0.5c-0.23,0.3-0.45,0.64-0.45,1.35c0,1.29,1.25,2.71,1.39,2.87c0.12,0.13,0.29,0.2,0.46,0.2
			c0.05,0,0.1-0.01,0.15-0.02c0.36-0.09,3.53-0.97,3.53-3.05c0-0.65,0.2-0.83,0.51-1.1c0.3-0.26,0.72-0.62,0.72-1.36
			c0-0.49,0.87-1.76,1.68-2.66c0.11-0.13,0.17-0.3,0.16-0.47c-0.01-0.17-0.1-0.33-0.24-0.43c-0.48-0.37-1.8-1.58-2.24-2.75
			c0.25,0.13,0.56,0.34,0.81,0.59c0.2,0.21,0.48,0.3,0.79,0.29c0.5-0.03,1.09-0.42,1.65-0.91c0.29,1.04,0.45,2.13,0.45,3.26
			C36.29,30.74,30.78,36.25,24,36.25z"/>
	</g>
</g>
</svg>
