<svg version="1.1" id="Слой_1" xmlns="http://www.w3.org/2000/svg" x="0" y="0" viewBox="0 0 19 19" style="enable-background:new 0 0 19 19" xml:space="preserve"><style>.st1,.st2{fill-rule:evenodd;clip-rule:evenodd;fill:#fefefe}.st2{fill:#ed4c5c}</style><path d="M.7 6.6H1l.2-.4.1.4.4.1-.2.2.1.5-.4-.3-.3.2.1-.4-.3-.3-.4 2.9h9.2V.4C5.4.3 2.1 2.8.7 6.6z" style="fill-rule:evenodd;clip-rule:evenodd;fill:#428bc0"/><path class="st1" d="M.5 11.6h18l.2-1.4H.3z"/><path class="st2" d="M1 13h17l.5-1.4H.5z"/><path class="st1" d="M1.7 14.4h15.6L18 13H1z"/><path class="st2" d="M2.8 15.8h13.4l1.1-1.4H1.7zM.3 9.5v.7h18.4V8.8H9.5v.7z"/><path class="st1" d="M4.5 17.3h10l1.7-1.5H2.8zm5-8.5h9.2l-.3-1.4H9.5z"/><path class="st2" d="M9.5 7.4h8.9L18 5.9H9.5z"/><path class="st1" d="M9.5 5.9H18l-.7-1.4H9.5z"/><path class="st2" d="M9.5 4.5h7.8l-1.2-1.4H9.5zm5 12.8h-10c2.7 1.9 7.3 1.9 10 0z"/><path class="st1" d="M9.5 3.1h6.6l-1.7-1.4H9.5z"/><path class="st2" d="M9.5 1.7h4.9C13.1.7 11.3.3 9.5.3v1.4z"/><path class="st1" d="M2.3 4.7h-.4c.4.5.2.1.2.7l.3-.2.3.2c0-.6-.2-.2.2-.7h-.4v-.4l-.2.4zm2.4 0h-.4c.4.5.2.1.2.7l.3-.2.3.2c0-.6-.2-.2.2-.7h-.4v-.4l-.2.4zm2.5 0h-.4c.4.6.2.2.2.8l.3-.2.3.2c0-.6-.2-.2.2-.7h-.4v-.5l-.2.4zM6 2.9h-.4c.4.5.2.1.2.8l.3-.2.3.2c0-.6-.2-.2.2-.7h-.4l-.1-.5-.1.4zm2.4 0H8c.5.5.3.1.2.8l.3-.2.3.2c0-.6-.2-.2.2-.7h-.4v-.5l-.2.4zM3.5 6.6h-.4c.4.5.2.1.2.7l.3-.2.4.2c0-.6-.2-.2.2-.7h-.4l-.1-.4-.2.4zm2.5 0h-.4c.4.5.2.1.2.7l.3-.2.3.2c0-.6-.2-.2.2-.7h-.4l-.1-.4-.1.4zm2.4 0H8c.4.5.2.1.2.7l.3-.2.3.2c0-.6-.2-.2.2-.7h-.4v-.4l-.2.4zM4.7 8.4h-.4c.4.5.2.1.2.7l.3-.2.3.2c0-.6-.2-.2.2-.7h-.4V8l-.2.4zm2.5 0h-.4c.4.5.2.2.2.8l.3-.2.3.2c0-.6-.2-.2.2-.7h-.4V8l-.2.4zm-4.9 0h-.4c.4.5.2.1.2.7l.3-.2.3.2c0-.6-.2-.2.2-.7h-.4V8l-.2.4zm4.9-7.3h-.4c.4.5.2.1.2.7l.3-.2.3.2c0-.6-.2-.2.2-.7h-.4V.7l-.2.4zM.7 6.6l.1.1.2.2-.1.4.3-.2.4.2-.1-.4.3-.3h-.4l-.1-.4-.2.4zm2.8-3.7h-.3l.2.3-.1.4.4-.2.3.3-.1-.5.3-.2-.4-.1-.1-.4z"/></svg>