<svg xmlns="http://www.w3.org/2000/svg" viewBox="0 0 48 48" style="enable-background:new 0 0 48 48" xml:space="preserve"><path d="M35.18 46.68a80.513 80.513 0 0 1-22.36 0c-5.18-.83-10.71-6.36-11.54-11.54a80.513 80.513 0 0 1 0-22.36C2.11 7.6 7.64 2.07 12.82 1.24a80.513 80.513 0 0 1 22.36 0c5.18.83 10.71 6.36 11.54 11.54a80.513 80.513 0 0 1 0 22.36c-.83 5.18-6.36 10.71-11.54 11.54z" style="fill:#ffc106"/><path d="M24 9.21c-8.13 0-14.75 6.62-14.75 14.75S15.87 38.71 24 38.71s14.75-6.62 14.75-14.75S32.13 9.21 24 9.21zm0 27.04c-3.35 0-6.38-1.35-8.6-3.53v-2c0-.58.26-.96.56-1.4.31-.45.66-.96.66-1.68 0-1.17-1.06-1.29-1.63-1.35-.41-.05-.79-.09-1.01-.31-.17-.17-.33-.47-.51-.79-.35-.64-.83-1.48-1.73-2 .4-6.42 5.73-11.53 12.25-11.53.34 0 .67.02 1 .05-.07.04-.15.07-.2.13-.12.12-.18.28-.18.45.01.17.08.33.21.44.22.2.26.3.27.3-.01.03-.13.22-.76.54-1.04.53-2.24 1.6-2.42 2.72-.08.51.07.98.42 1.33.12.12.27.18.43.18.85 0 1.51-.32 2.15-.62.65-.31 1.27-.61 2.15-.61 2.41 0 4.3.54 4.3 1.23 0 .25-.08.33-.11.36-.3.3-1.33.28-2.23.26-.24 0-.48-.01-.73-.01-.83 0-1.09-.12-1.39-.26-.35-.16-.74-.35-1.68-.35-1.01 0-2.9.18-4.12 1.41-1 1-.9 2.2-.83 2.99.02.18.03.36.03.51 0 1.21 1.24 1.84 2.46 1.84 1.88 0 3.5.35 3.69.61 0 .69.2 1.16.37 1.53.14.32.25.56.25.92 0 .28-.05.34-.17.5-.23.3-.45.64-.45 1.35 0 1.29 1.25 2.71 1.39 2.87.12.13.29.2.46.2.05 0 .1-.01.15-.02.36-.09 3.53-.97 3.53-3.05 0-.65.2-.83.51-1.1.3-.26.72-.62.72-1.36 0-.49.87-1.76 1.68-2.66.11-.13.17-.3.16-.47a.575.575 0 0 0-.24-.43c-.48-.37-1.8-1.58-2.24-2.75.25.13.56.34.81.59.2.21.48.3.79.29.5-.03 1.09-.42 1.65-.91.29 1.04.45 2.13.45 3.26.02 6.82-5.49 12.33-12.27 12.33z" style="fill:#fff"/></svg>